# xmcd CD database file
#
# Track frame offsets:
#	150
#	15965
#	34995
#	53610
#	69042
#	88525
#	104840
#	128805
#	153880
#	175512
#	194797
#	214087
#	232850
#	250255
#	266002
#	283247
#	308940
#
# Disc length: 4344 seconds
#
# Revision: 7
# Processed by: cddbd v1.5.1PL2 Copyright (c) Steve Scherf et al.
# Submitted via: CDex 1.51
#
DISCID=e610f611
DTITLE=セリーヌ・ディオン - ア・ニュー・デイ・ハズ・カム
DYEAR=2002
DGENRE=Pop
TTITLE0=アイム・アライヴ
TTITLE1=ライト・イン・フロント・オブ・ユー
TTITLE2=ハヴ・ユー・エヴァー・ビーン・イン・ラヴ
TTITLE3=レイン,タックス (イッツ・イネヴィタブル)
TTITLE4=ア・ニュー・デイ・ハズ・カム (ラジオ・ミックス)
TTITLE5=テン・デイズ
TTITLE6=グッドバイズ (ザ・サッデスト・ワード)
TTITLE7=プレイヤー
TTITLE8=アイ・サレンダー
TTITLE9=アット・ラスト
TTITLE10=スーパー・ラヴ
TTITLE11=ソーリー・フォー・ラヴ
TTITLE12=アウン・エクシステ・アモール (まだ愛はある)
TTITLE13=ザ・グレイテスト・リウォード
TTITLE14=ホウェン・ザ・ロング・ワン・ラヴズ・ユー・ラスト
TTITLE15=ア・ニュー・デイ・ハズ・カム
TTITLE16=ネイチャー・ボーイ
EXTD=YEAR: 2002
EXTT0=
EXTT1=
EXTT2=
EXTT3=
EXTT4=
EXTT5=
EXTT6=
EXTT7=
EXTT8=
EXTT9=
EXTT10=
EXTT11=
EXTT12=
EXTT13=
EXTT14=
EXTT15=
EXTT16=
PLAYORDER=
